# Produced by Art of Illusion 2.7.2, Wed Dec 02 17:06:44 CET 2009
#
# Modelled by Emmanuel Puybaret / eTeks under Blender 3d modeller for SweetHome3D
# This file is under Free Art License, see http://artlibre.org/licence/lal/en for more informations
#
g Wall
v 100 -50 0
v 0 -50 100
v 9.80171 -50 99.51847
v 19.50903 -50 98.07853
v 29.02847 -50 95.69403
v 38.26834 -50 92.38795
v 47.13967 -50 88.19213
v 55.55702 -50 83.14696
v 63.43933 -50 77.30105
v 70.71068 -50 70.71068
v 77.30105 -50 63.43933
v 83.14696 -50 55.55702
v 88.19213 -50 47.13967
v 92.38795 -50 38.26834
v 95.69403 -50 29.02847
v 98.07853 -50 19.50903
v 99.51847 -50 9.80171
v 100 50 0
v 0 50 100
v 9.80171 50 99.51847
v 19.50903 50 98.07853
v 29.02847 50 95.69403
v 38.26834 50 92.38795
v 47.13967 50 88.19213
v 55.55702 50 83.14696
v 63.43933 50 77.30105
v 70.71068 50 70.71068
v 77.30105 50 63.43933
v 83.14696 50 55.55702
v 88.19213 50 47.13967
v 92.38795 50 38.26834
v 95.69403 50 29.02847
v 98.07853 50 19.50903
v 99.51847 50 9.80171
v 85 -50 0
v 0 -50 85
v 8.33146 -50 84.5907
v 16.58268 -50 83.36675
v 24.6742 -50 81.33993
v 32.52809 -50 78.52976
v 40.06872 -50 74.96331
v 47.22347 -50 70.67492
v 53.92343 -50 65.70589
v 60.10408 -50 60.10408
v 65.70589 -50 53.92343
v 70.67492 -50 47.22347
v 74.96331 -50 40.06872
v 78.52976 -50 32.52809
v 81.33993 -50 24.6742
v 83.36675 -50 16.58268
v 84.5907 -50 8.33146
v 85 50 0
v 0 50 85
v 8.33146 50 84.5907
v 16.58268 50 83.36675
v 24.6742 50 81.33993
v 32.52809 50 78.52976
v 40.06872 50 74.96331
v 47.22347 50 70.67492
v 53.92343 50 65.70589
v 60.10408 50 60.10408
v 65.70589 50 53.92343
v 70.67492 50 47.22347
v 74.96331 50 40.06872
v 78.52976 50 32.52809
v 81.33993 50 24.6742
v 83.36675 50 16.58268
v 84.5907 50 8.33146
vn 0.9988 0 0.04907
vn 0 0 -1
vn 0 -1 -0
vn 0.04907 0 0.9988
vn 0 -1 0
vn -1 0 0
vn -0 -1 0
vn 0.09802 0 0.99518
vn 0 -1 0
vn 0.19509 0 0.98079
vn 0 -1 0
vn 0.29028 0 0.95694
vn 0 -1 -0
vn 0.38268 0 0.92388
vn -0 -1 0
vn 0.4714 0 0.88192
vn 0 -1 0
vn 0.55557 0 0.83147
vn 0 -1 0
vn 0.63439 0 0.77301
vn 0 -1 0
vn 0.70711 0 0.70711
vn 0 -1 0
vn 0.77301 0 0.63439
vn -0 -1 -0
vn 0.83147 0 0.55557
vn 0 -1 0
vn 0.88192 0 0.4714
vn 0 -1 0
vn 0.92388 0 0.38268
vn -0 -1 -0
vn 0.95694 0 0.29028
vn -0 -1 0
vn 0.98079 0 0.19509
vn 0 -1 0
vn 0.99518 0 0.09802
vn 0 1 -0
vn 0 0 -1
vn 0.9988 0 0.04907
vn 0.04907 0 0.9988
vn 0 1 0
vn -1 0 0
vn 0 1 -0
vn 0.09802 0 0.99518
vn -0 1 0
vn 0.19509 0 0.98079
vn 0 1 0
vn 0.29028 0 0.95694
vn -0 1 -0
vn 0.38268 0 0.92388
vn -0 1 0
vn 0.4714 0 0.88192
vn 0 1 0
vn 0.55557 0 0.83147
vn 0 1 0
vn 0.63439 0 0.77301
vn 0 1 0
vn 0.70711 0 0.70711
vn 0 1 0
vn 0.77301 0 0.63439
vn -0 1 -0
vn 0.83147 0 0.55557
vn 0 1 0
vn 0.88192 0 0.4714
vn 0 1 0
vn 0.92388 0 0.38268
vn -0 1 -0
vn 0.95694 0 0.29028
vn -0 1 0
vn 0.98079 0 0.19509
vn 0 1 0
vn 0.99518 0 0.09802
vn 0 -1 -0
vn 0 0 -1
vn -0.9988 0 -0.04907
vn -1 0 0
vn -0.04907 0 -0.9988
vn 0 -1 0
vn -0.09802 0 -0.99518
vn -0 -1 0
vn -0.19509 0 -0.98079
vn 0 -1 0
vn -0.29028 0 -0.95694
vn 0 -1 0
vn -0.38268 0 -0.92388
vn -0 -1 0
vn -0.4714 0 -0.88192
vn -0 -1 0
vn -0.55557 0 -0.83147
vn 0 -1 -0
vn 0 -1 -0
vn -0.63439 0 -0.77301
vn -0.70711 0 -0.70711
vn -0 -1 0
vn -0.77301 0 -0.63439
vn 0 -1 0
vn 0 -1 0
vn -0.83147 0 -0.55557
vn -0.88192 0 -0.4714
vn 0 -1 0
vn -0.92388 0 -0.38268
vn 0 -1 -0
vn -0.95694 0 -0.29028
vn -0 -1 -0
vn 0 -1 0
vn -0.98079 0 -0.19509
vn -0.99518 0 -0.09802
vn 0 -1 0
vn -0.9988 0 -0.04907
vn 0 1 -0
vn 0 0 -1
vn 0 1 -0
vn -1 0 0
vn -0.04907 0 -0.9988
vn -0 1 0
vn -0.09802 0 -0.99518
vn -0 1 0
vn -0.19509 0 -0.98079
vn 0 1 -0
vn -0.29028 0 -0.95694
vn -0 1 0
vn -0.38268 0 -0.92388
vn -0 1 0
vn -0.4714 0 -0.88192
vn 0 1 0
vn -0.55557 0 -0.83147
vn 0 1 -0
vn -0.63439 0 -0.77301
vn -0 1 0
vn -0.70711 0 -0.70711
vn 0 1 0
vn -0.77301 0 -0.63439
vn 0 1 0
vn -0.83147 0 -0.55557
vn 0 1 0
vn -0.88192 0 -0.4714
vn 0 1 -0
vn -0.92388 0 -0.38268
vn -0 1 -0
vn -0.95694 0 -0.29028
vn -0 1 0
vn -0.98079 0 -0.19509
vn 0 1 0
vn -0.99518 0 -0.09802
f 19//40 2//4 3//8
f 20//44 3//8 4//10
f 21//46 4//10 5//12
f 22//48 5//12 6//14
f 23//50 6//14 7//16
f 24//52 7//16 8//18
f 25//54 8//18 9//20
f 26//56 9//20 10//22
f 27//58 10//22 11//24
f 28//60 11//24 12//26
f 29//62 12//26 13//28
f 30//64 13//28 14//30
f 31//66 14//30 15//32
f 32//68 15//32 16//34
f 33//70 16//34 17//36
f 34//72 17//36 1//1
f 19//40 3//8 20//44
f 20//44 4//10 21//46
f 21//46 5//12 22//48
f 22//48 6//14 23//50
f 23//50 7//16 24//52
f 24//52 8//18 25//54
f 25//54 9//20 26//56
f 26//56 10//22 27//58
f 27//58 11//24 28//60
f 28//60 12//26 29//62
f 29//62 13//28 30//64
f 30//64 14//30 31//66
f 31//66 15//32 32//68
f 32//68 16//34 33//70
f 33//70 17//36 34//72
f 34//72 1//1 18//39
f 50//106 66//140 67//142
f 51//107 68//144 35//75
f 63//134 46//98 62//132
f 3//7 2//5 36//78
f 3//7 37//80 38//82
f 4//9 3//7 38//82
f 4//9 38//82 39//84
f 5//11 4//9 39//84
f 6//13 5//11 39//84
f 7//15 6//13 40//86
f 42//89 59//126 43//92
f 8//17 7//15 41//88
f 9//19 8//17 42//90
f 9//19 43//91 44//94
f 10//21 9//19 44//94
f 10//21 44//94 45//96
f 11//23 10//21 45//96
f 11//23 45//96 46//97
f 12//25 11//23 46//97
f 13//27 12//25 46//97
f 13//27 47//100 48//102
f 14//29 13//27 48//102
f 56//120 40//85 39//83
f 15//31 14//29 48//102
f 16//33 15//31 49//104
f 17//35 16//33 50//105
f 57//121 56//119 23//49
f 1//3 17//35 51//108
f 60//128 44//93 43//92
f 68//144 50//106 67//142
f 62//132 46//98 45//95
f 55//118 39//83 38//81
f 54//116 38//81 37//79
f 37//79 53//114 54//116
f 54//115 53//112 20//43
f 64//136 48//101 47//99
f 49//103 66//140 50//106
f 61//130 45//95 44//93
f 41//87 58//124 42//89
f 45//95 61//130 62//132
f 19//41 20//43 53//112
f 20//43 21//45 54//115
f 21//45 22//47 55//117
f 22//47 23//49 56//119
f 23//49 24//51 57//121
f 44//93 60//128 61//130
f 24//51 25//53 58//123
f 25//53 26//55 59//125
f 43//92 59//126 60//128
f 26//55 27//57 60//127
f 48//101 65//138 49//103
f 27//57 28//59 61//129
f 62//131 28//59 63//133
f 28//59 29//61 63//133
f 42//89 58//124 59//126
f 29//61 30//63 63//133
f 64//135 30//63 65//137
f 30//63 31//65 65//137
f 31//65 32//67 65//137
f 41//87 57//122 58//124
f 32//67 33//69 66//139
f 67//141 33//69 68//143
f 33//69 34//71 68//143
f 34//71 18//37 68//143
f 56//119 55//117 22//47
f 50//106 68//144 51//107
f 55//117 54//115 21//45
f 47//99 63//134 64//136
f 38//81 54//116 55//118
f 37//80 3//7 36//78
f 40//86 6//13 39//84
f 41//88 7//15 40//86
f 42//90 8//17 41//88
f 43//91 9//19 42//90
f 47//100 13//27 46//97
f 49//104 15//31 48//102
f 50//105 16//33 49//104
f 51//108 17//35 50//105
f 35//73 1//3 51//108
f 24//51 58//123 57//121
f 25//53 59//125 58//123
f 26//55 60//127 59//125
f 27//57 61//129 60//127
f 28//59 62//131 61//129
f 30//63 64//135 63//133
f 32//67 66//139 65//137
f 33//69 67//141 66//139
f 18//37 52//110 68//143
f 65//138 48//101 64//136
f 40//85 57//122 41//87
f 40//85 56//120 57//122
f 49//103 65//138 66//140
f 46//98 63//134 47//99
f 39//83 55//118 56//120
f 19//42 53//113 2//6
f 2//6 53//113 36//76
f 36//77 53//114 37//79
f 52//109 35//75 68//144
f 1//2 35//74 18//38
f 18//38 35//74 52//111
